<svg xmlns="http://www.w3.org/2000/svg" xmlns:xlink="http://www.w3.org/1999/xlink" width="68.44" height="75.03" viewBox="0 0 68.44 75.03"><defs><style>.cls-1 { fill: #50c05f; fill-rule: evenodd; filter: url(#filter); }</style><filter id="filter" x="1342.03" y="4116.91" width="68.44" height="75.03" filterUnits="userSpaceOnUse"><feFlood result="flood" flood-color="#9fa9b5"/><feComposite result="composite" operator="in" in2="SourceGraphic"/><feBlend result="blend" in2="SourceGraphic"/></filter></defs><path class="cls-1" d="M1342.02,4116.92h68.46v58.03h-5.74v-2.78h2.92V4128.1h-62.81v44.03h2.9v2.82h-5.73v-58.03Zm2.81,8.19h62.81v-5.35h-62.81v5.35Zm29.95,20.61c-0.4,0-.8.01-1.2,0a4.057,4.057,0,0,1-4.06-4,4.008,4.008,0,0,1,3.96-4.23c1.9-.07,3.81-0.06,5.71.01a4.115,4.115,0,0,1,.2,8.18c-0.56.06-1.13,0.05-1.69,0.08-0.01.09-.03,0.18-0.04,0.27a8.391,8.391,0,0,0,.84.18,20.386,20.386,0,0,1,6.81,1.8c7.86,3.72,12.5,9.93,13.42,18.68a22.791,22.791,0,0,1-17.69,24.7c-12.45,2.83-25.03-5.78-27.08-18.54a22.842,22.842,0,0,1,16.66-26.05c1.13-.3,2.32-0.4,3.48-0.6,0.25-.05.49-0.12,0.74-0.18Zm1.45,3.23a20.066,20.066,0,1,0,19.83,20.1A19.964,19.964,0,0,0,1376.23,4148.95Zm1.48-6.11c0.36,0,.69.02,1.02,0a1.266,1.266,0,0,0,1.38-1.27,1.283,1.283,0,0,0-1.42-1.23c-0.93-.02-1.87-0.01-2.81-0.01-0.79.01-1.59-.02-2.38,0.04a1.158,1.158,0,0,0-1.1,1.21,1.175,1.175,0,0,0,1.09,1.23,11.222,11.222,0,0,0,1.3.01c0.03-.44.05-0.81,0.07-1.23h2.77C1377.66,4142.02,1377.68,4142.39,1377.71,4142.84Zm17.67,11.84c-0.64-.71-1.24-1.37-1.91-2.1,0.28-.3.66-0.72,1.05-1.14-0.31-.3-0.62-0.59-1.08-1.02-0.28.39-.61,0.86-0.95,1.33-0.77-.82-1.4-1.47-2.05-2.16,0.99-1.09,1.94-2.43,3.74-1.98a4.446,4.446,0,0,1,3.15,3.05C1397.94,4152.5,1396.58,4153.56,1395.38,4154.68Zm-38.31-.04c-1.15-1.07-2.5-2.14-1.91-3.97a4.487,4.487,0,0,1,3.07-3.04c1.81-.51,2.8.85,3.81,1.95-0.66.66-1.3,1.31-2.02,2.03-0.28-.36-0.63-0.81-1.01-1.28-0.42.47-.71,0.79-1.1,1.24,0.37,0.29.82,0.65,1.26,1Zm-9.29-33.58h2.7v2.78h-2.7v-2.78Zm8.21,2.78h-2.72v-2.75h2.72v2.75Zm5.47-2.75v2.68h-2.68v-2.68h2.68Zm24.15,46.5v2.78c-0.28.02-.56,0.04-0.83,0.04-1.35,0-2.7.02-4.05-.01a0.9,0.9,0,0,0-.95.55,3.951,3.951,0,0,1-4.59,2.02,4.118,4.118,0,0,1,.23-7.98,3.97,3.97,0,0,1,4.34,2.03,0.937,0.937,0,0,0,1,.58C1382.34,4167.57,1383.93,4167.59,1385.61,4167.59Zm-8.11,1.46a1.288,1.288,0,0,0-1.2-1.31,1.266,1.266,0,1,0-.08,2.53A1.277,1.277,0,0,0,1377.5,4169.05Zm-11.34-14.86c0.82-.48,1.58-0.93,2.44-1.44,0.43,0.74.84,1.46,1.29,2.24-0.82.48-1.58,0.93-2.44,1.44C1367.02,4155.68,1366.61,4154.97,1366.16,4154.19Zm-2.34,5.89c-0.48.85-.91,1.62-1.41,2.49-0.74-.43-1.45-0.85-2.21-1.29,0.47-.84.91-1.61,1.39-2.48C1362.34,4159.23,1363.05,4159.64,1363.82,4160.08Zm-1.42,15.36c0.48,0.85.93,1.62,1.42,2.48l-2.22,1.3c-0.49-.86-0.93-1.65-1.4-2.47C1360.95,4176.3,1361.63,4175.9,1362.4,4175.44Zm28.5,3.78c-0.75-.43-1.45-0.84-2.24-1.29,0.47-.82.92-1.61,1.41-2.48l2.22,1.29C1391.83,4177.57,1391.39,4178.36,1390.9,4179.22Zm-22.3,6.05c-0.86-.51-1.62-0.95-2.45-1.44,0.45-.77.85-1.47,1.29-2.24,0.83,0.48,1.61.94,2.45,1.43C1369.45,4183.78,1369.05,4184.48,1368.6,4185.27Zm15.28-.01c-0.45-.78-0.85-1.49-1.28-2.24,0.84-.49,1.6-0.94,2.44-1.43,0.42,0.74.83,1.44,1.29,2.25C1385.53,4184.3,1384.75,4184.75,1383.88,4185.26Zm-9,1.62v-2.45h2.74v2.45h-2.74Zm10.17-30.46c-0.85-.5-1.61-0.94-2.44-1.43,0.43-.75.83-1.46,1.27-2.23l2.43,1.41C1385.89,4154.91,1385.5,4155.62,1385.05,4156.42Zm7.24,4.85c-0.77.45-1.46,0.85-2.21,1.29-0.48-.83-0.91-1.6-1.41-2.47,0.73-.43,1.44-0.84,2.22-1.29C1391.36,4159.63,1391.8,4160.4,1392.29,4161.27Zm-31.28,9.06h-2.38v-2.68h2.38v2.68Zm32.89-2.7v2.73h-2.44v-2.73h2.44Zm-19.02-16.48h2.66v2.48c-0.77,0-1.53.02-2.29-.02a0.565,0.565,0,0,1-.35-0.41C1374.86,4152.55,1374.88,4151.89,1374.88,4151.15Z" transform="translate(-1342.03 -4116.91)"/></svg>
