<svg xmlns="http://www.w3.org/2000/svg" width="68.44" height="75.03"><defs><filter id="a" x="1342.03" y="4116.91" width="68.44" height="75.03" filterUnits="userSpaceOnUse"><feFlood result="flood" flood-color="#9fa9b5"/><feComposite result="composite" operator="in" in2="SourceGraphic"/><feBlend result="blend" in2="SourceGraphic"/></filter></defs><path d="M1342.02 4116.92h68.46v58.03h-5.74v-2.78h2.92v-44.07h-62.81v44.03h2.9v2.82h-5.73v-58.03zm2.81 8.19h62.81v-5.35h-62.81v5.35zm29.95 20.61c-.4 0-.8.01-1.2 0a4.057 4.057 0 0 1-4.06-4 4.008 4.008 0 0 1 3.96-4.23c1.9-.07 3.81-.06 5.71.01a4.115 4.115 0 0 1 .2 8.18c-.56.06-1.13.05-1.69.08-.01.09-.03.18-.04.27a8.391 8.391 0 0 0 .84.18 20.386 20.386 0 0 1 6.81 1.8c7.86 3.72 12.5 9.93 13.42 18.68a22.791 22.791 0 0 1-17.69 24.7c-12.45 2.83-25.03-5.78-27.08-18.54a22.842 22.842 0 0 1 16.66-26.05c1.13-.3 2.32-.4 3.48-.6.25-.05.49-.12.74-.18zm1.45 3.23a20.066 20.066 0 1 0 19.83 20.1 19.964 19.964 0 0 0-19.83-20.1zm1.48-6.11c.36 0 .69.02 1.02 0a1.266 1.266 0 0 0 1.38-1.27 1.283 1.283 0 0 0-1.42-1.23c-.93-.02-1.87-.01-2.81-.01-.79.01-1.59-.02-2.38.04a1.158 1.158 0 0 0-1.1 1.21 1.175 1.175 0 0 0 1.09 1.23 11.222 11.222 0 0 0 1.3.01c.03-.44.05-.81.07-1.23h2.77c.03.43.05.8.08 1.25zm17.67 11.84c-.64-.71-1.24-1.37-1.91-2.1.28-.3.66-.72 1.05-1.14-.31-.3-.62-.59-1.08-1.02-.28.39-.61.86-.95 1.33-.77-.82-1.4-1.47-2.05-2.16.99-1.09 1.94-2.43 3.74-1.98a4.446 4.446 0 0 1 3.15 3.05c.61 1.84-.75 2.9-1.95 4.02zm-38.31-.04c-1.15-1.07-2.5-2.14-1.91-3.97a4.487 4.487 0 0 1 3.07-3.04c1.81-.51 2.8.85 3.81 1.95-.66.66-1.3 1.31-2.02 2.03-.28-.36-.63-.81-1.01-1.28-.42.47-.71.79-1.1 1.24.37.29.82.65 1.26 1zm-9.29-33.58h2.7v2.78h-2.7v-2.78zm8.21 2.78h-2.72v-2.75h2.72v2.75zm5.47-2.75v2.68h-2.68v-2.68h2.68zm24.15 46.5v2.78c-.28.02-.56.04-.83.04-1.35 0-2.7.02-4.05-.01a.9.9 0 0 0-.95.55 3.951 3.951 0 0 1-4.59 2.02 4.118 4.118 0 0 1 .23-7.98 3.97 3.97 0 0 1 4.34 2.03.937.937 0 0 0 1 .58c1.58-.03 3.17-.01 4.85-.01zm-8.11 1.46a1.288 1.288 0 0 0-1.2-1.31 1.266 1.266 0 1 0-.08 2.53 1.277 1.277 0 0 0 1.28-1.22zm-11.34-14.86c.82-.48 1.58-.93 2.44-1.44.43.74.84 1.46 1.29 2.24-.82.48-1.58.93-2.44 1.44-.43-.75-.84-1.46-1.29-2.24zm-2.34 5.89c-.48.85-.91 1.62-1.41 2.49-.74-.43-1.45-.85-2.21-1.29.47-.84.91-1.61 1.39-2.48.75.43 1.46.84 2.23 1.28zm-1.42 15.36c.48.85.93 1.62 1.42 2.48l-2.22 1.3c-.49-.86-.93-1.65-1.4-2.47.75-.45 1.43-.85 2.2-1.31zm28.5 3.78c-.75-.43-1.45-.84-2.24-1.29.47-.82.92-1.61 1.41-2.48l2.22 1.29c-.46.83-.9 1.62-1.39 2.48zm-22.3 6.05c-.86-.51-1.62-.95-2.45-1.44.45-.77.85-1.47 1.29-2.24.83.48 1.61.94 2.45 1.43-.44.76-.84 1.46-1.29 2.25zm15.28-.01c-.45-.78-.85-1.49-1.28-2.24.84-.49 1.6-.94 2.44-1.43.42.74.83 1.44 1.29 2.25-.8.46-1.58.91-2.45 1.42zm-9 1.62v-2.45h2.74v2.45h-2.74zm10.17-30.46c-.85-.5-1.61-.94-2.44-1.43.43-.75.83-1.46 1.27-2.23l2.43 1.41c-.42.74-.81 1.45-1.26 2.25zm7.24 4.85c-.77.45-1.46.85-2.21 1.29-.48-.83-.91-1.6-1.41-2.47.73-.43 1.44-.84 2.22-1.29.47.83.91 1.6 1.4 2.47zm-31.28 9.06h-2.38v-2.68h2.38v2.68zm32.89-2.7v2.73h-2.44v-2.73h2.44zm-19.02-16.48h2.66v2.48c-.77 0-1.53.02-2.29-.02a.565.565 0 0 1-.35-.41c-.04-.65-.02-1.31-.02-2.05z" transform="translate(-1342.03 -4116.91)" fill="#50c05f" fill-rule="evenodd" filter="url(#a)"/></svg>