<svg xmlns="http://www.w3.org/2000/svg" width="22" height="21" viewBox="0 0 13.531 9.65"><path fill="rgba(103, 106, 109, 1)" d="M6.789 0h5.319a1.366 1.366 0 0 1 1.415 1.45v6.77a1.371 1.371 0 0 1-1.415 1.45H1.428A1.366 1.366 0 0 1 .012 8.22V1.45A1.366 1.366 0 0 1 1.428 0h5.361zM1.371 8.27h10.783V2.25c-1.616 1.47-3.209 2.93-4.8 4.39a.675.675 0 0 1-.934.01c-.156-.13-.307-.27-.461-.41C4.771 5.2 3.584 4.15 2.396 3.11c-.332-.3-.666-.59-1.023-.9v6.06zm5.5-3.03c1.4-1.28 2.785-2.55 4.2-3.85H2.502c1.47 1.3 2.911 2.57 4.368 3.85z"/></svg>