<svg xmlns="http://www.w3.org/2000/svg" width="22" height="21" viewBox="0 0 13.531 9.65"><path fill="rgba(103, 106, 109, 1)" d="M818.352,4245.88h5.319a1.366,1.366,0,0,1,1.415,1.45q0,3.375,0,6.77a1.371,1.371,0,0,1-1.415,1.45h-10.68a1.366,1.366,0,0,1-1.416-1.45v-6.77a1.366,1.366,0,0,1,1.416-1.45h5.361Zm-5.418,8.27h10.783v-6.02c-1.616,1.47-3.209,2.93-4.8,4.39a0.675,0.675,0,0,1-.934.01c-0.156-.13-0.307-0.27-0.461-0.41-1.188-1.04-2.375-2.09-3.563-3.13-0.332-.3-0.666-0.59-1.023-0.9v6.06Zm5.5-3.03c1.4-1.28,2.785-2.55,4.2-3.85h-8.569C815.535,4248.57,816.976,4249.84,818.433,4251.12Z" transform="translate(-811.563 -4245.88)"/></svg>
