<svg xmlns="http://www.w3.org/2000/svg" width="11.468" height="12.031" viewBox="0 0 11.468 12.031"><path fill="#bdc3ca" d="M742.569,23.85a2.215,2.215,0,0,1-2.437-1.994c0-1.067,1.268-1.955,2.683-1.94a3.058,3.058,0,0,1,.916.149,3,3,0,0,1,1.474,1.462,1.64,1.64,0,0,1,.046.384c0,1.089-.693,1.939-2.682,1.939m0.372-6.383a2.51,2.51,0,0,1-2.016-2.336c-0.164-1.262.473-2.227,1.422-2.2a2.471,2.471,0,0,1,2.016,2.3c0.163,1.262-.473,2.261-1.422,2.232m1.968,1.869a2.421,2.421,0,0,1-.97-1.16,1.228,1.228,0,0,1,.708-1.067,2.514,2.514,0,0,0,1.041-1.947,2.226,2.226,0,0,0-1.188-2.154h1.168l0.825-.6h-3.686a3.11,3.11,0,0,0-3.207,2.733,2.679,2.679,0,0,0,2.808,2.709c0.117,0,.23,0,0.341-0.01a1.536,1.536,0,0,0-.187.7,1.453,1.453,0,0,0,.5,1.031c-0.212,0-.417.006-0.639,0.006-2.047,0-3.622,1.318-3.622,2.686,0,1.347,1.727,2.189,3.773,2.189,2.333,0,3.622-1.339,3.622-2.686a2.608,2.608,0,0,0-1.289-2.424m5.359-1.6H748.86V16.156h-1.206v1.579h-1.407v0.987h1.407V20.3h1.206V18.722h1.408V17.735Z" transform="translate(-738.813 -12.406)"/></svg>
