<svg xmlns="http://www.w3.org/2000/svg" width="33.75" height="33.75" viewBox="0 0 33.75 33.75">
  <defs>
    <style>
      .cls-1 {
        fill: #f5f6f8;
        fill-rule: evenodd;
      }
    </style>
  </defs>
  <path id="Icon" class="cls-1" d="M1101.25,698.625a16.875,16.875,0,1,1,16.87,16.875,16.877,16.877,0,0,1-16.87-16.875m30.59,0a13.715,13.715,0,1,0-13.72,13.711,13.714,13.714,0,0,0,13.72-13.711m-13.72,4.746a1.581,1.581,0,0,1,.53-1.172v0l2.21-1.988h-9.59a1.582,1.582,0,0,1,0-3.164h9.59l-2.21-1.988v0a1.577,1.577,0,1,1,2.11-2.344l0.01,0,5.27,4.746-0.01,0a1.56,1.56,0,0,1,0,2.343l0.01,0-5.27,4.746-0.01,0a1.578,1.578,0,0,1-2.64-1.171" transform="translate(-1101.25 -681.75)"/>
</svg>
