<svg xmlns="http://www.w3.org/2000/svg" width="11.656" height="11.438" viewBox="0 0 11.656 11.438"><path fill="#bdc3ca" d="M806.115,12.18h-7.154a2.236,2.236,0,0,0-2.254,2.212v7.024a2.236,2.236,0,0,0,2.254,2.213h7.154a2.236,2.236,0,0,0,2.253-2.213V14.392A2.235,2.235,0,0,0,806.115,12.18Zm0.646,1.32h0.258V15.44l-1.97.006-0.007-1.94Zm-5.887,3.23a2.068,2.068,0,0,1,3.328,0,1.979,1.979,0,0,1,.389,1.175,2.053,2.053,0,0,1-4.106,0A1.979,1.979,0,0,1,800.874,16.73Zm6.358,4.687a1.108,1.108,0,0,1-1.117,1.1h-7.154a1.108,1.108,0,0,1-1.118-1.1V16.73h1.741a3.051,3.051,0,0,0-.235,1.175,3.189,3.189,0,0,0,6.377,0,3.069,3.069,0,0,0-.235-1.175h1.741v4.687Z" transform="translate(-796.719 -12.188)"/></svg>
