<svg xmlns="http://www.w3.org/2000/svg" width="88.219" height="67.37"><defs><filter id="a" x="476.906" y="4114.44" width="88.219" height="67.37" filterUnits="userSpaceOnUse"><feFlood result="flood" flood-color="#9fa9b5"/><feComposite result="composite" operator="in" in2="SourceGraphic"/><feBlend result="blend" in2="SourceGraphic"/></filter></defs><path d="M508.74 4114.44h.173c.168.27.346.53.5.8 2.123 3.68 4.258 7.35 6.351 11.05a1.372 1.372 0 0 0 1.407.83c2.3-.04 4.594-.01 6.891-.01h1.038v-11.27h15.955v11.26h1.572c3.675 0 7.35-.01 11.025 0 2.722 0 4.268 1.55 4.269 4.28q.011 20.055.008 40.12v.99h7.194v4.32a4.653 4.653 0 0 1-5.018 4.98q-30.534 0-61.069.01h-17.315c-2.3-.01-4.34-1.27-4.647-3.33a41.541 41.541 0 0 1-.063-6.03h7.018v-.89q0-19.98-.01-39.95c0-2.98 1.513-4.51 4.494-4.5 4.077.01 8.154-.01 12.231.02a1.224 1.224 0 0 0 1.221-.7c1.956-3.44 3.942-6.87 5.91-10.31.311-.54.578-1.11.865-1.67zm-7.874 57.96v-42.25c-4.339 0-8.614-.01-12.888.01-.806 0-.92.58-.92 1.26q.012 20.055 0 40.11c0 .28.027.55.043.87h13.762zm40.242-42.26v42.23h13.75c.014-.24.032-.41.032-.58v-40.46a.967.967 0 0 0-1.177-1.19c-1.665-.02-3.33 0-5 0h-7.609zm-12.982-11.3v53.51h9.8v-2.56h-2.512v-3.05h2.528v-2.64h-2.5v-3.03h2.514v-2.62h-2.533v-3.04h2.522v-2.64h-2.536v-3h2.551v-2.65h-2.531v-3.05h2.532v-2.58h-2.544v-3.07h2.525v-2.64h-2.5v-3.04h2.514v-2.61h-2.52v-3.04h2.519v-2.6h-2.526v-3.06h2.52v-2.59h-9.818zm-11.171 11.34v42.22h8.052v-42.22h-8.052zm-37.03 45.35c-.331 2.37.15 3.28 2.64 3.26 7.465-.06 14.93-.02 22.395-.02h46q4.565 0 9.13-.01a1.7 1.7 0 0 0 1.99-1.48 15.147 15.147 0 0 0 .012-1.75h-82.167zm33.892-3.12v-40.13c-.99 1.02-1.792 1.9-2.667 2.71a2.252 2.252 0 0 0-.745 1.82q.029 17.325.016 34.67c0 .3.033.6.053.93h3.343zm-6.431 0v-1.19c0-10.84-.056-21.68.046-32.52.019-2.08-.311-3.75-2.064-4.99a12.678 12.678 0 0 1-1.36-1.34v40.04h3.378zm1.6-39.52c1.378-1.39 2.784-2.78 4.147-4.22a.88.88 0 0 0 .019-.8 26.928 26.928 0 0 1-1.638-2.93 2.739 2.739 0 0 0-3.46-1.89 2.058 2.058 0 0 0-.256.01 1.5 1.5 0 0 0-.6.38c-.964 1.62-1.9 3.27-2.809 4.85 1.538 1.53 3.018 3.02 4.602 4.6z" transform="translate(-476.906 -4114.44)" fill="#d3dade" fill-rule="evenodd" filter="url(#a)"/></svg>