<svg xmlns="http://www.w3.org/2000/svg" width="13.531" height="21.91"><path d="M.012 5.07v-.12a2.369 2.369 0 0 0 .059-.36c.006-.62-.006-1.24 0-1.86A2.888 2.888 0 0 1 2.924.02h7.78a2.905 2.905 0 0 1 2.811 2.69q.006 8.235 0 16.48a2.9 2.9 0 0 1-2.865 2.73q-3.784.015-7.569 0a3.937 3.937 0 0 1-.685-.06 2.871 2.871 0 0 1-2.324-2.61c-.011-.65 0-1.3-.006-1.95a2.5 2.5 0 0 0-.059-.37v-.11a1.869 1.869 0 0 0 .059-.31V5.37a1.591 1.591 0 0 0-.054-.3zM6.8 16.41c1.78 0 3.559-.01 5.339 0 .273.01.362-.06.361-.34q-.014-5.145 0-10.29c0-.24-.077-.31-.326-.31q-5.369.015-10.738 0c-.262 0-.344.07-.343.33q.014 5.145 0 10.29c0 .25.073.33.34.32 1.788-.01 3.577 0 5.367 0zM6.776 4.49h5.4c.25.01.336-.07.327-.31-.016-.44 0-.89-.006-1.33a1.674 1.674 0 0 0-1.344-1.76 4.359 4.359 0 0 0-.958-.05c-2.482 0-4.964-.01-7.445.01a1.585 1.585 0 0 0-1.589 1.39c-.061.55-.029 1.12-.065 1.68-.018.29.064.38.379.38 1.762-.02 3.533-.01 5.301-.01zm.045 12.91c-1.8 0-3.6 0-5.4-.01-.243 0-.34.06-.33.31.018.47 0 .95.007 1.42a1.755 1.755 0 0 0 1.854 1.79c2.624-.03 5.248-.01 7.873-.02a1.617 1.617 0 0 0 1.618-1.43c.049-.58.027-1.16.054-1.74.012-.25-.067-.33-.338-.33-1.779.01-3.558.01-5.338.01zM6.766 3.27H5.26a.5.5 0 1 1 .02-.99h2.982a.5.5 0 1 1 .01.99H6.766zm1.263 15.84a1.29 1.29 0 0 1-2.578 0 1.29 1.29 0 0 1 2.578 0zm-1.227-.26c-.045 0-.09.01-.135.01a.927.927 0 0 0-.144.25c-.036.16.058.22.222.22s.248-.08.214-.23a1.075 1.075 0 0 0-.157-.25z" fill="#6e8291" fill-rule="evenodd" opacity=".2"/></svg>