<svg xmlns="http://www.w3.org/2000/svg" width="13.531" height="12.87" viewBox="0 0 13.531 12.87"><defs><style> .cls-1 { fill: #6e8291; fill-rule: evenodd; opacity: 0.2; }</style></defs><path class="cls-1" d="M817.75,4314.54a6.2,6.2,0,0,1-.523-0.54,2.088,2.088,0,0,1-.4-1.54,6.647,6.647,0,0,1,.139-0.78,0.466,0.466,0,0,1,.132-0.22c1.335-1.28,2.674-2.55,4.012-3.83,0.287-.28.276-0.33-0.064-0.54q-2.336-1.38-4.668-2.78c-0.025-.02-0.047-0.03-0.082-0.06a2.134,2.134,0,0,0,.356-1.18c-1.2,1.14-2.4,2.29-3.586,3.42a3.06,3.06,0,0,0,1.264-.29c0.987,1.51,1.973,3.01,2.964,4.53-0.259.15-.515,0.3-0.784,0.47-0.146-.23-0.291-0.44-0.435-0.66q-1.028-1.575-2.054-3.15a0.176,0.176,0,0,0-.228-0.09,2.382,2.382,0,0,1-1.1.04,1.866,1.866,0,0,1-1.123-.71c1.736-1.66,3.472-3.31,5.212-4.98a1.723,1.723,0,0,1,.785,1.55,4.96,4.96,0,0,1-.088.6,0.139,0.139,0,0,0,.069.17c1.335,0.79,2.667,1.59,4,2.38a1.288,1.288,0,0,1,.667.77,1.056,1.056,0,0,1-.371,1.05c-0.42.41-.852,0.82-1.279,1.22-0.828.79-1.653,1.59-2.489,2.37a0.863,0.863,0,0,0-.321.58,2.093,2.093,0,0,0,.068.87c0.94-.9,1.869-1.79,2.8-2.68,0.061,0.06.1,0.09,0.14,0.13,0.775,0.74,1.548,1.48,2.327,2.22a0.491,0.491,0,0,0,.255.12,0.25,0.25,0,0,0,.2-0.12,0.329,0.329,0,0,0-.01-0.22,0.239,0.239,0,0,0-.1-0.11l-2.325-2.22c-0.038-.04-0.076-0.08-0.117-0.12,0.9-.85,1.789-1.71,2.68-2.56,0-.01-0.006-0.03-0.009-0.04-0.205-.03-0.411-0.06-0.643-0.09v-0.85a2.193,2.193,0,0,1,1.276.26,5.216,5.216,0,0,1,.592.45c0.066,0.05.127,0.11,0.19,0.16v0.03c-0.023.02-.049,0.03-0.07,0.05l-2.636,2.52a0.744,0.744,0,0,0-.089.09c0.053,0.04.1,0.07,0.142,0.1,0.592,0.57,1.189,1.13,1.773,1.7a1.067,1.067,0,0,1-.024,1.53,1.205,1.205,0,0,1-1.7-.01c-0.577-.55-1.148-1.1-1.722-1.64-0.039-.04-0.079-0.07-0.121-0.11l-0.077.07c-0.907.86-1.815,1.73-2.722,2.6-0.025.02-.043,0.05-0.065,0.07h-0.03Z" transform="translate(-811.563 -4301.66)"/></svg>
