<svg xmlns="http://www.w3.org/2000/svg" width="13.531" height="12.87"><path d="M6.187 12.88a6.2 6.2 0 0 1-.523-.54 2.088 2.088 0 0 1-.4-1.54 6.647 6.647 0 0 1 .139-.78.466.466 0 0 1 .132-.22C6.87 8.52 8.209 7.25 9.547 5.97c.287-.28.276-.33-.064-.54Q7.147 4.05 4.815 2.65c-.025-.02-.047-.03-.082-.06a2.134 2.134 0 0 0 .356-1.18c-1.2 1.14-2.4 2.29-3.586 3.42a3.06 3.06 0 0 0 1.264-.29c.987 1.51 1.973 3.01 2.964 4.53-.259.15-.515.3-.784.47-.146-.23-.291-.44-.435-.66L2.458 5.73a.176.176 0 0 0-.228-.09 2.382 2.382 0 0 1-1.1.04 1.866 1.866 0 0 1-1.123-.71C1.743 3.31 3.479 1.66 5.219-.01a1.723 1.723 0 0 1 .785 1.55 4.96 4.96 0 0 1-.088.6.139.139 0 0 0 .069.17c1.335.79 2.667 1.59 4 2.38a1.288 1.288 0 0 1 .667.77 1.056 1.056 0 0 1-.371 1.05c-.42.41-.852.82-1.279 1.22-.828.79-1.653 1.59-2.489 2.37a.863.863 0 0 0-.321.58 2.093 2.093 0 0 0 .068.87l2.8-2.68c.061.06.1.09.14.13.775.74 1.548 1.48 2.327 2.22a.491.491 0 0 0 .255.12.25.25 0 0 0 .2-.12.329.329 0 0 0-.01-.22.239.239 0 0 0-.1-.11L9.547 8.67c-.038-.04-.076-.08-.117-.12.9-.85 1.789-1.71 2.68-2.56 0-.01-.006-.03-.009-.04a37.51 37.51 0 0 0-.643-.09v-.85a2.193 2.193 0 0 1 1.276.26 5.216 5.216 0 0 1 .592.45c.066.05.127.11.19.16v.03c-.023.02-.049.03-.07.05L10.81 8.48a.744.744 0 0 0-.089.09c.053.04.1.07.142.1.592.57 1.189 1.13 1.773 1.7a1.067 1.067 0 0 1-.024 1.53 1.205 1.205 0 0 1-1.7-.01c-.577-.55-1.148-1.1-1.722-1.64-.039-.04-.079-.07-.121-.11l-.077.07c-.907.86-1.815 1.73-2.722 2.6-.025.02-.043.05-.065.07h-.03z" fill="#6e8291" fill-rule="evenodd" opacity=".2"/></svg>