<svg xmlns="http://www.w3.org/2000/svg" xmlns:xlink="http://www.w3.org/1999/xlink" width="88.343" height="62.93" viewBox="0 0 88.343 62.93"><defs><style>.cls-1 { fill: #00bbd3; fill-rule: evenodd; filter: url(#filter); }</style><filter id="filter" x="908.438" y="4128.66" width="88.343" height="62.93" filterUnits="userSpaceOnUse"><feFlood result="flood" flood-color="#9fa9b5"/><feComposite result="composite" operator="in" in2="SourceGraphic"/><feBlend result="blend" in2="SourceGraphic"/></filter></defs><path class="cls-1" d="M925.011,4128.65h59.318c2.51,0.81,3.26,1.86,3.26,4.58q0,10.605,0,21.21v0.97c0.2,0.03.257,0.05,0.314,0.05,1.637,0.01,3.275,0,4.912.02a3.787,3.787,0,0,1,3.952,3.99q0.006,14.025,0,28.07a4.707,4.707,0,0,1-.119,1.11,4.055,4.055,0,0,1-3.177,2.94H978.811a8.835,8.835,0,0,1-1.426-.56,3.825,3.825,0,0,1-1.945-3.62c0.013-1.76,0-3.52,0-5.3H939.089c0,1.47.024,2.88-.005,4.29a4.93,4.93,0,0,1-3.128,4.76c-0.413.18-.858,0.29-1.289,0.43H912.94a2.036,2.036,0,0,0-.236-0.1,4.985,4.985,0,0,1-4.271-5.35q0-15.24,0-30.5a5,5,0,0,1,5.308-5.4c2.356-.01,4.712,0,7.068,0h0.961v-1.17q0-7.9,0-15.82C921.77,4130.5,922.464,4129.52,925.011,4128.65Zm59.588,26.83c0.02-.35.049-0.6,0.049-0.85q0-10.815,0-21.64c0-1.17-.176-1.34-1.359-1.34h-57.23c-1.161,0-1.351.19-1.352,1.36q0,8.13,0,16.25v0.98c3.028,0,5.928-.01,8.827,0,3.544,0,5.557,2.03,5.56,5.6q0.008,7.335,0,14.69v1.06h36.3c0.022-.26.056-0.49,0.057-0.71,0-3.68.015-7.36,0-11.04-0.012-2.8,1.513-4.37,4.292-4.36H984.6Zm-73.235,15.38q0,7.575,0,15.13c0,1.83.752,2.6,2.553,2.6h8.967c3.62,0,7.241.01,10.862,0a2.168,2.168,0,0,0,2.409-2.41c0.007-.52,0-1.04,0-1.57q0-14.475,0-28.94a2.177,2.177,0,0,0-2.435-2.47q-9.872-.015-19.743-0.01c-1.871,0-2.611.75-2.612,2.64Q911.359,4163.345,911.364,4170.86Zm82.473,2.7q0-6.87,0-13.74c0-1.13-.253-1.39-1.364-1.39q-6.338,0-12.674.01c-1.185,0-1.4.22-1.4,1.42,0.008,4.38.035,8.75,0.034,13.13,0,4.72-.031,9.44-0.037,14.17,0,1.2.232,1.43,1.407,1.43h12.587c1.23,0,1.449-.22,1.449-1.47Q993.841,4180.34,993.837,4173.56Zm-18.478,1.09H939.142v4.4h36.217v-4.4Zm-32.932,16.94v-2.93h3.252v-4.32h2.935v4.22h12.053v-4.2h2.94v4.23h3.439c-0.047,1.07-.09,2.03-0.133,3H942.427Zm-13.991-56.16h52.526v11.15H928.436v-11.15Zm38.546,14.7v17.79H956.358v-17.79h10.624ZM953,4167.93H942.412v-17.81H953v17.81Zm-20.014-2.59h-18.44v-8.96h18.44v8.96Zm-0.013,15.45h-8.032v-13.13h1.422c1.981,0,3.961.01,5.942,0,0.445,0,.765.03,0.761,0.63-0.021,4.06-.013,8.11-0.018,12.16A1.969,1.969,0,0,1,932.969,4180.79Zm-18.5.02V4167.7h8.114v13.11h-8.114Zm13.737,6.07h-8.881v-2.87h8.881v2.87ZM980.94,4161H991.3v8.66H980.94V4161Zm0,20.37v-3.5h10.341v3.5H980.937Zm10.243-9.4v3.53h-7.162c-0.831,0-1.662-.01-2.493.01a0.5,0.5,0,0,1-.6-0.61c0.03-.72.02-1.45-0.015-2.17a0.605,0.605,0,0,1,.719-0.77C984.777,4171.98,987.928,4171.97,991.18,4171.97Zm-8.351,14.9v-2.85h6.509v2.85h-6.509Z" transform="translate(-908.438 -4128.66)"/></svg>
