<svg xmlns="http://www.w3.org/2000/svg" width="88.343" height="62.93"><defs><filter id="a" x="908.438" y="4128.66" width="88.343" height="62.93" filterUnits="userSpaceOnUse"><feFlood result="flood" flood-color="#9fa9b5"/><feComposite result="composite" operator="in" in2="SourceGraphic"/><feBlend result="blend" in2="SourceGraphic"/></filter></defs><path d="M925.011 4128.65h59.318c2.51.81 3.26 1.86 3.26 4.58v22.18c.2.03.257.05.314.05 1.637.01 3.275 0 4.912.02a3.787 3.787 0 0 1 3.952 3.99q.006 14.025 0 28.07a4.707 4.707 0 0 1-.119 1.11 4.055 4.055 0 0 1-3.177 2.94h-14.66a8.835 8.835 0 0 1-1.426-.56 3.825 3.825 0 0 1-1.945-3.62c.013-1.76 0-3.52 0-5.3h-36.351c0 1.47.024 2.88-.005 4.29a4.93 4.93 0 0 1-3.128 4.76c-.413.18-.858.29-1.289.43H912.94a2.036 2.036 0 0 0-.236-.1 4.985 4.985 0 0 1-4.271-5.35v-30.5a5 5 0 0 1 5.308-5.4c2.356-.01 4.712 0 7.068 0h.961v-16.99c0-2.75.694-3.73 3.241-4.6zm59.588 26.83c.02-.35.049-.6.049-.85v-21.64c0-1.17-.176-1.34-1.359-1.34h-57.23c-1.161 0-1.351.19-1.352 1.36v17.23c3.028 0 5.928-.01 8.827 0 3.544 0 5.557 2.03 5.56 5.6q.008 7.335 0 14.69v1.06h36.3c.022-.26.056-.49.057-.71 0-3.68.015-7.36 0-11.04-.012-2.8 1.513-4.37 4.292-4.36h4.857zm-73.235 15.38v15.13c0 1.83.752 2.6 2.553 2.6h8.967c3.62 0 7.241.01 10.862 0a2.168 2.168 0 0 0 2.409-2.41c.007-.52 0-1.04 0-1.57v-28.94a2.177 2.177 0 0 0-2.435-2.47q-9.872-.015-19.743-.01c-1.871 0-2.611.75-2.612 2.64q-.006 7.515-.001 15.03zm82.473 2.7v-13.74c0-1.13-.253-1.39-1.364-1.39q-6.338 0-12.674.01c-1.185 0-1.4.22-1.4 1.42.008 4.38.035 8.75.034 13.13 0 4.72-.031 9.44-.037 14.17 0 1.2.232 1.43 1.407 1.43h12.587c1.23 0 1.449-.22 1.449-1.47q.002-6.78-.002-13.56zm-18.478 1.09h-36.217v4.4h36.217v-4.4zm-32.932 16.94v-2.93h3.252v-4.32h2.935v4.22h12.053v-4.2h2.94v4.23h3.439l-.133 3h-24.486zm-13.991-56.16h52.526v11.15h-52.526v-11.15zm38.546 14.7v17.79h-10.624v-17.79h10.624zM953 4167.93h-10.588v-17.81H953v17.81zm-20.014-2.59h-18.44v-8.96h18.44v8.96zm-.013 15.45h-8.032v-13.13h1.422c1.981 0 3.961.01 5.942 0 .445 0 .765.03.761.63-.021 4.06-.013 8.11-.018 12.16a1.969 1.969 0 0 1-.079.34zm-18.5.02v-13.11h8.114v13.11h-8.114zm13.737 6.07h-8.881v-2.87h8.881v2.87zm52.73-25.88h10.36v8.66h-10.36V4161zm0 20.37v-3.5h10.341v3.5h-10.344zm10.243-9.4v3.53h-7.162c-.831 0-1.662-.01-2.493.01a.5.5 0 0 1-.6-.61c.03-.72.02-1.45-.015-2.17a.605.605 0 0 1 .719-.77c3.145.02 6.296.01 9.548.01zm-8.351 14.9v-2.85h6.509v2.85h-6.509z" transform="translate(-908.438 -4128.66)" fill="#00bbd3" fill-rule="evenodd" filter="url(#a)"/></svg>